HIERARCHY
ROOT hip
{
	OFFSET 0.000000 0.000000 0.000000 
	CHANNELS 6 Xposition Yposition Zposition Xrotation Zrotation Yrotation
	JOINT abdomen
	{
		OFFSET 0.000000 3.402643 0.000000 
		CHANNELS 3 Xrotation Zrotation Yrotation
		JOINT chest
		{
			OFFSET 0.000000 8.438565 -0.680529 
			CHANNELS 3 Xrotation Zrotation Yrotation
			JOINT neck
			{
				OFFSET 0.000000 10.207942 -0.272212 
				CHANNELS 3 Xrotation Zrotation Yrotation
				JOINT head
				{
					OFFSET 0.000000 3.130431 0.000000 
					CHANNELS 3 Xrotation Zrotation Yrotation
					End Site
					{
						OFFSET 0.000000 3.130435 0.000000 
					}
				}
			}
			JOINT lCollar
			{
				OFFSET 3.470700 6.669187 -0.816635 
				CHANNELS 3 Yrotation Zrotation Xrotation
				JOINT lShldr
				{
					OFFSET 3.198488 0.000000 0.000000 
					CHANNELS 3 Zrotation Yrotation Xrotation
					JOINT lForeArm
					{
						OFFSET 10.139888 0.000000 0.000000 
						CHANNELS 3 Yrotation Zrotation Xrotation
						JOINT lHand
						{
							OFFSET 8.370511 0.000000 0.000000 
							CHANNELS 3 Zrotation Yrotation Xrotation
							End Site
							{
								OFFSET 4.083176 0.000000 0.000000 
							}
						}
					}
				}
			}
			JOINT rCollar
			{
				OFFSET -3.470700 6.669187 -0.816635 
				CHANNELS 3 Yrotation Zrotation Xrotation
				JOINT rShldr
				{
					OFFSET -3.198488 0.000000 0.000000 
					CHANNELS 3 Zrotation Yrotation Xrotation
					JOINT rForeArm
					{
						OFFSET -10.139888 0.000000 0.000000 
						CHANNELS 3 Yrotation Zrotation Xrotation
						JOINT rHand
						{
							OFFSET -8.370511 0.000000 0.000000 
							CHANNELS 3 Zrotation Yrotation Xrotation
							End Site
							{
								OFFSET -4.083176 0.000000 0.000000 
							}
						}
					}
				}
			}
		}
	}
	JOINT lThigh
	{
		OFFSET 5.308129 -1.633274 1.361059 
		CHANNELS 3 Xrotation Zrotation Yrotation
		JOINT lShin
		{
			OFFSET -2.041588 -20.007561 0.000000 
			CHANNELS 3 Xrotation Zrotation Yrotation
			JOINT lFoot
			{
				OFFSET 0.000000 -19.190928 -1.224953 
				CHANNELS 3 Xrotation Yrotation Zrotation
				End Site
				{
					OFFSET 0.000000 -2.449906 4.627600 
				}
			}
		}
	}
	JOINT rThigh
	{
		OFFSET -5.308129 -1.633274 1.361059 
		CHANNELS 3 Xrotation Zrotation Yrotation
		JOINT rShin
		{
			OFFSET 2.041588 -20.007561 0.000000 
			CHANNELS 3 Xrotation Zrotation Yrotation
			JOINT rFoot
			{
				OFFSET 0.000000 -19.190928 -1.224953 
				CHANNELS 3 Xrotation Yrotation Zrotation
				End Site
				{
					OFFSET 0.000000 -2.449906 4.627600 
				}
			}
		}
	}
}
MOTION
Frames: 16
Frame Time: 0.016667
-0.328869 41.635277 1.850456 30.432301 2.080100 -19.549700 -9.213360 -2.173250 2.331050 21.337900 -0.283177 1.607420 -9.646030 -7.458160 -12.286800 0.918177 4.501640 -5.925360 2.000000 -2.000000 0.000000 40.583000 -30.952200 105.283997 40.273800 -0.319159 0.088437 0.210636 -0.160342 131.095993 -2.000000 2.000000 0.000000 -95.859100 45.541199 -2.427360 -15.410300 0.346648 0.036333 -0.055522 -0.009196 -130.134995 -70.498848 9.273756 3.024402 41.498165 1.789432 3.225713 2.607543 4.085474 0.056494 -26.144218 12.281646 -1.354405 33.306149 -1.679157 -2.906892 10.674040 -47.699879 3.213851 
-0.590908 41.405296 4.767071 34.012798 1.230500 -18.886499 -9.933180 -1.717160 2.337210 19.277201 0.907977 1.561760 -10.121000 -7.150030 -13.103200 0.760930 4.706030 -6.311350 2.000000 -2.000000 0.000000 43.407799 -35.438499 96.827698 38.262100 -0.322197 0.084721 0.185907 -0.169054 139.942993 -2.000000 2.000000 0.000000 -94.136101 47.074600 -2.369580 -15.898600 0.346334 0.037455 -0.055947 -0.012478 -128.953003 -74.281364 9.424772 0.559285 47.030159 1.435951 3.553660 -2.154883 -3.212654 0.405575 -22.517052 12.468944 -2.425460 25.938349 -1.721749 -2.480051 29.614147 -48.817146 16.977482 
-0.796440 41.209034 7.865967 36.113602 -0.220897 -19.497101 -9.847310 -1.536830 2.789140 17.577200 1.423850 1.810690 -8.863370 -5.795160 -13.469800 2.161830 5.137730 -6.326990 2.000000 -2.000000 0.000000 47.213200 -36.532799 94.517502 36.494499 -0.324757 0.081370 0.180813 -0.168359 141.779007 -2.000000 2.000000 0.000000 -92.759697 47.304100 -4.420900 -15.674000 0.346480 0.036939 -0.056639 -0.016964 -127.332001 -75.434334 10.377279 -1.715475 49.808937 1.271583 3.724384 -2.481260 -7.128716 0.379679 -16.639956 11.563362 -6.839106 18.186113 -1.717340 -1.935974 5.200068 -38.699379 -2.264470 
-0.926525 41.504265 11.208669 41.539200 -0.877205 -21.079901 -10.501400 -1.502610 3.388480 16.023701 1.547880 2.025780 -8.786120 -4.697340 -13.681400 2.485290 5.401500 -6.393060 2.000000 -2.000000 0.000000 48.834801 -36.142200 94.361198 36.875401 -0.324214 0.082098 0.178761 -0.168031 142.522003 -2.000000 2.000000 0.000000 -91.624603 47.032600 -7.711290 -15.537300 0.346568 0.036625 -0.057847 -0.023331 -125.017998 -77.649559 11.952777 -4.799888 50.165504 1.192276 3.773776 -5.448822 -6.532629 0.189947 -14.822193 10.716304 -8.960428 13.402038 -1.660753 -1.546402 22.534481 -21.022615 3.849642 
-1.078570 41.592037 14.697927 51.631500 -4.114980 -23.060600 -11.177100 -0.688427 3.956960 16.845699 0.136432 2.354430 -8.724170 -3.257870 -13.341100 2.730480 5.733510 -6.191980 2.000000 -2.000000 0.000000 48.675098 -34.432899 95.650002 39.140999 -0.320886 0.086357 0.181084 -0.168400 141.682007 -2.000000 2.000000 0.000000 -88.862900 47.151299 -2.955700 -16.738501 0.345771 0.039378 -0.055360 -0.007784 -130.641998 -84.788048 14.781310 -12.518677 51.016838 1.171830 3.784038 -8.053626 -5.414358 0.319803 -14.655392 13.377789 -17.393581 5.692621 -0.884991 -1.110348 23.858862 5.008175 -4.717030 
-1.150153 41.723576 18.218496 61.959499 -5.351530 -25.958000 -12.114600 -0.178530 4.949650 18.007401 -0.985352 2.807530 -8.615830 -1.419510 -12.671800 3.054520 6.250980 -5.797400 2.000000 -2.000000 0.000000 49.861698 -34.687199 93.931297 39.824600 -0.319848 0.087616 0.181219 -0.168420 141.632996 -2.000000 2.000000 0.000000 -88.044403 45.487400 -8.638190 -14.931800 0.346947 0.035231 -0.057769 -0.022956 -125.153999 -91.942345 16.814236 -19.563379 51.839352 1.170159 3.822507 -10.988409 6.847349 2.482731 -18.438759 15.607604 -27.320639 5.329542 -0.965119 -1.035865 63.638908 10.972708 -23.070787 
-1.122495 41.872601 21.717155 71.214302 -5.552120 -29.325600 -13.168900 0.251276 6.060050 18.798000 -1.776510 3.306460 -8.595100 0.301560 -11.688800 3.329940 6.748860 -5.236540 2.000000 -2.000000 0.000000 49.873402 -35.117001 93.222603 39.785599 -0.319908 0.087545 0.178923 -0.168058 142.462997 -2.000000 2.000000 0.000000 -87.644302 45.700298 -9.458990 -14.287300 0.347335 0.033743 -0.059027 -0.028503 -123.123001 -97.795746 18.493187 -25.781122 52.729748 1.144485 3.827556 -3.304273 22.753771 2.482757 -13.982393 -0.385228 112.765419 -33.497498 -9.869795 2.805980 -80.306000 -16.303272 -12.704461 
-1.075007 42.033852 25.162121 79.845497 -6.055360 -32.821701 -14.221500 0.960960 7.199360 19.324900 -2.606820 3.893860 -8.679490 1.564170 -10.734000 3.595750 7.002520 -4.659400 2.000000 -2.000000 0.000000 48.682999 -35.526501 96.197098 39.385201 -0.320517 0.086808 0.171695 -0.166693 145.089996 -2.000000 2.000000 0.000000 -88.697304 47.648102 -7.615060 -15.937700 0.346308 0.037545 -0.057327 -0.020758 -125.955002 -102.659286 20.237135 -32.591892 52.579105 1.223288 3.792983 18.842066 33.348419 -9.196695 -24.970053 15.563136 -31.445795 20.576401 -3.982634 -1.352507 -62.951038 17.199707 -156.027420 
-1.079303 42.296780 28.575520 87.121696 -5.889240 -35.282299 -14.844900 0.506204 7.962460 19.646601 -3.671410 4.169490 -8.483860 3.207450 -8.562650 3.969790 7.080060 -3.481430 2.000000 -2.000000 0.000000 48.203400 -35.985401 96.558502 38.994499 -0.321106 0.086086 0.159611 -0.163627 149.542999 -2.000000 2.000000 0.000000 -88.246696 49.385700 -3.778730 -18.681900 0.344361 0.043795 -0.054823 -0.001902 -132.751999 -105.433945 21.603712 -38.139168 50.288231 1.431740 3.634414 23.860977 36.240620 -12.794656 -26.917273 14.775644 -28.052635 28.264193 -5.744017 -1.697402 -61.418617 14.280814 -164.196808 
-1.138728 42.637321 31.936340 95.235802 -7.069220 -37.316799 -16.178200 1.491160 8.840000 19.273600 -4.403200 4.707610 -8.548460 4.421640 -7.529520 4.275600 7.362580 -2.788600 2.000000 -2.000000 0.000000 48.264301 -39.404301 89.144203 33.047199 -0.329447 0.074614 0.109485 -0.128852 169.651001 -2.000000 2.000000 0.000000 -88.570900 51.888000 -2.825290 -19.775600 0.343501 0.046260 -0.054538 0.003067 -134.529007 -108.780777 22.682903 -45.817333 45.853073 1.791280 3.334761 33.650505 34.927418 -18.483751 -28.490919 16.218494 -24.986317 36.213867 -6.675782 -2.194283 -45.422794 19.464199 -167.988525 
-1.257795 43.068333 35.234367 104.433998 -9.773940 -39.297298 -17.284500 3.360860 9.489130 19.282200 -5.008530 5.306170 -9.160130 5.144780 -6.303420 4.246230 7.431010 -2.040140 2.000000 -2.000000 0.000000 49.995300 -42.218201 69.778297 24.023701 -0.339722 0.055719 0.066541 -0.061223 -159.352997 -2.000000 2.000000 0.000000 -89.063904 54.593800 -2.525020 -21.347900 0.342184 0.049772 -0.054857 -0.002365 -132.585999 -112.748810 23.427055 -55.756882 39.673172 2.219929 2.924282 44.229416 30.445463 -23.257832 -29.502216 20.168642 -21.097054 45.786694 -6.653482 -2.761080 -41.538795 21.882998 -168.132538 
-1.422674 43.725586 38.587776 113.456001 -12.155100 -40.501400 -18.393801 5.271810 10.102900 18.870199 -5.114980 5.931050 -10.115000 5.829100 -4.985220 4.069320 7.597440 -1.203380 2.000000 -2.000000 0.000000 50.196201 -45.274200 69.075401 26.191700 -0.337527 0.060403 0.071276 -0.071624 -163.434998 -2.000000 2.000000 0.000000 -86.367302 56.186199 5.910460 -22.002199 0.341607 0.051223 -0.054556 0.007107 -139.460999 -115.472679 23.980043 -66.954567 30.300020 2.690997 2.265938 54.257450 25.422815 -27.032158 -30.002073 23.790749 -18.407673 55.389698 -6.336985 -3.237571 -31.081991 26.151424 -171.113358 
-1.709091 44.320938 42.018356 118.123001 -11.444300 -39.653099 -19.066200 5.248900 10.124200 17.550100 -4.310490 5.909140 -11.072100 7.682880 -2.745350 3.901980 7.675890 0.229581 2.000000 -2.000000 0.000000 50.343800 -47.400902 66.546700 27.949499 -0.335618 0.064138 0.068299 -0.065319 -160.945007 -2.000000 2.000000 0.000000 -84.619003 57.510399 4.266740 -23.662399 0.340070 0.054874 -0.055144 -0.005689 -131.393997 -112.836693 26.641212 -66.903404 24.730652 2.851226 1.859883 59.450668 24.760691 -30.918839 -27.903534 23.048750 -13.404346 65.070923 -6.152402 -3.679156 159.474701 152.748428 3.717152 
-2.049779 44.707409 45.592060 118.102997 0.865064 -36.736599 -20.149799 1.494770 9.453890 16.103500 0.301820 4.664000 -15.965500 5.595980 2.649300 1.648060 6.854380 2.813600 2.000000 -2.000000 0.000000 49.969898 -47.509102 67.481499 29.160500 -0.334237 0.066675 0.069573 -0.068104 -162.039001 -2.000000 2.000000 0.000000 -85.863403 58.116699 4.598870 -25.078400 0.338676 0.057952 -0.054499 0.005659 -138.942993 -102.444962 31.371506 -58.908245 13.112276 2.702154 1.088335 68.695816 28.646168 -44.861038 -26.349001 8.981327 -5.381873 69.744690 -8.003441 -4.440019 -31.496506 27.379204 -172.668167 
-2.327277 45.082958 48.765842 125.028000 0.319506 -35.358200 -20.910500 1.164830 8.842760 15.927300 -0.798169 4.371260 -23.822399 -9.374640 20.866400 1.343350 -1.731020 9.280810 2.000000 -2.000000 0.000000 50.589401 -47.481300 69.151497 31.025700 -0.332006 0.070526 0.070420 -0.069882 -162.742004 -2.000000 2.000000 0.000000 -86.585602 57.930199 0.097345 -26.552999 0.337144 0.061119 -0.054690 0.000090 -133.464996 -103.682724 30.864351 -35.793236 27.574106 3.276407 1.916241 13.794994 33.114403 -5.654387 -23.089788 10.778152 -1.786372 74.491608 -8.693450 -5.009660 157.720398 157.812347 2.102015 
-2.442379 45.221561 52.061398 130.345001 -0.771374 -32.353802 -20.992300 1.062540 7.387500 15.184900 -0.894492 3.697380 -25.534100 -8.304050 18.640600 0.847345 -1.066170 8.458450 2.000000 -2.000000 0.000000 50.730801 -46.622898 70.350800 33.349998 -0.329052 0.075219 0.070336 -0.069709 -162.673996 -2.000000 2.000000 0.000000 -91.130600 58.790100 -7.883190 -30.010099 0.333236 0.068383 -0.055781 -0.011258 -129.391998 -100.561081 28.770010 -40.858204 18.503597 3.992295 1.175491 -16.793396 16.834545 5.293580 -18.065336 10.871302 1.943631 81.611877 -8.112890 -5.198068 172.161072 167.018677 -2.005586 
